<svg width="20" height="20" viewBox="0 0 20 20" fill="none" xmlns="http://www.w3.org/2000/svg">
<path d="M10 0C7.34784 0 4.8043 1.05357 2.92893 2.92893C1.05357 4.8043 0 7.34784 0 10C0 12.6522 1.05357 15.1957 2.92893 17.0711C4.8043 18.9464 7.34784 20 10 20C12.6522 20 15.1957 18.9464 17.0711 17.0711C18.9464 15.1957 20 12.6522 20 10C20 7.34784 18.9464 4.8043 17.0711 2.92893C15.1957 1.05357 12.6522 0 10 0ZM9 17.93C7.89202 17.7892 6.8258 17.4179 5.86998 16.8401C4.91415 16.2623 4.08991 15.4908 3.4503 14.5752C2.81069 13.6596 2.36988 12.6202 2.15627 11.5239C1.94265 10.4276 1.96096 9.29877 2.21 8.21L7 13V14C7 15.1 7.9 16 9 16V17.93ZM15.9 15.39C15.64 14.58 14.9 14 14 14H13V11C13 10.7348 12.8946 10.4804 12.7071 10.2929C12.5196 10.1054 12.2652 10 12 10H6V8H8C8.26522 8 8.51957 7.89464 8.70711 7.70711C8.89464 7.51957 9 7.26522 9 7V5H11C11.5304 5 12.0391 4.78929 12.4142 4.41421C12.7893 4.03914 13 3.53043 13 3V2.59C14.1939 3.07531 15.2528 3.84187 16.0867 4.82444C16.9206 5.807 17.5048 6.97649 17.7896 8.23337C18.0744 9.49025 18.0513 10.7973 17.7223 12.0434C17.3933 13.2894 16.7681 14.4375 15.9 15.39Z" fill="black"/>
</svg>
