<svg width="24" height="24" viewBox="0 0 24 24" fill="none" xmlns="http://www.w3.org/2000/svg">
<path d="M14 0H10V4H14V0Z" fill="#013A4C"/>
<path d="M24 9.97998H20V13.98H24V9.97998Z" fill="#013A4C"/>
<path d="M4 9.97998H0V13.98H4V9.97998Z" fill="#013A4C"/>
<path d="M14 20H10V24H14V20Z" fill="#013A4C"/>
<path d="M19.0706 2.10309L16.2421 4.93152L19.0706 7.75995L21.899 4.93152L19.0706 2.10309Z" fill="#013A4C"/>
<path d="M19.079 16.2375L16.2506 19.0659L19.079 21.8943L21.9075 19.0659L19.079 16.2375Z" fill="#013A4C"/>
<path d="M4.94207 2.08747L2.11365 4.91589L4.94207 7.74432L7.7705 4.91589L4.94207 2.08747Z" fill="#013A4C"/>
<path d="M4.93054 16.2401L2.10211 19.0685L4.93054 21.8969L7.75897 19.0685L4.93054 16.2401Z" fill="#013A4C"/>
</svg>
