<svg width="24" height="24" viewBox="0 0 24 24" fill="none" xmlns="http://www.w3.org/2000/svg">
<g clip-path="url(#clip0)">
<path d="M14 17.02H10V24.02H14V17.02Z" fill="#013A4C"/>
<path d="M14 -0.0200195H10V6.97998H14V-0.0200195Z" fill="#013A4C"/>
<path d="M6.98001 10H-0.019989V14H6.98001V10Z" fill="#013A4C"/>
<path d="M24.02 10H17.02V14H24.02V10Z" fill="#013A4C"/>
<path d="M7.03123 14.1386L2.08148 19.0884L4.90991 21.9168L9.85966 16.9671L7.03123 14.1386Z" fill="#013A4C"/>
<path d="M19.0912 2.08321L14.1415 7.03296L16.9699 9.86139L21.9197 4.91164L19.0912 2.08321Z" fill="#013A4C"/>
<path d="M4.9122 2.08087L2.08377 4.9093L7.03352 9.85905L9.86195 7.03062L4.9122 2.08087Z" fill="#013A4C"/>
<path d="M16.9676 14.1409L14.1392 16.9694L19.0889 21.9191L21.9174 19.0907L16.9676 14.1409Z" fill="#013A4C"/>
</g>
<defs>
<clipPath id="clip0">
<rect width="24" height="24" fill="white"/>
</clipPath>
</defs>
</svg>
